{"asset":{"generator":"glTF-Transform v3.2.0","version":"2.0","extras":{"author":"strawbie133 (https://sketchfab.com/strawbie133)","license":"CC-BY-4.0 (http://creativecommons.org/licenses/by/4.0/)","source":"https://sketchfab.com/3d-models/cherry-blossom-island-9d438fb2d92143da93bb49480e064efb","title":"Cherry Blossom Island"}},"accessors":[{"type":"VEC3","componentType":5126,"count":594,"max":[1.162043571472168,0.4204452335834503,0.7311400175094604],"min":[-0.5318116545677185,-0.5095222592353821,-0.5088384747505188],"bufferView":0,"byteOffset":0},{"type":"VEC3","componentType":5126,"count":594,"bufferView":0,"byteOffset":12},{"type":"VEC2","componentType":5126,"count":594,"bufferView":0,"byteOffset":24},{"type":"VEC3","componentType":5126,"count":384,"max":[2.406498908996582,0.5842728614807129,-0.9248843193054199],"min":[0.8537317514419556,-0.4123128056526184,-2.508845329284668],"bufferView":1,"byteOffset":0},{"type":"VEC3","componentType":5126,"count":384,"bufferView":1,"byteOffset":12},{"type":"VEC2","componentType":5126,"count":384,"bufferView":1,"byteOffset":24},{"type":"VEC3","componentType":5126,"count":384,"max":[0.2768363058567047,0.1930304765701294,0.47485142946243286],"min":[-0.3006034195423126,-0.2931064963340759,-0.23361077904701233],"bufferView":2,"byteOffset":0},{"type":"VEC3","componentType":5126,"count":384,"bufferView":2,"byteOffset":12},{"type":"VEC2","componentType":5126,"count":384,"bufferView":2,"byteOffset":24},{"type":"VEC3","componentType":5126,"count":384,"max":[0.347507119178772,0.18253539502620697,0.4153159260749817],"min":[-0.36104047298431396,-0.315997838973999,-0.24156706035137177],"bufferView":3,"byteOffset":0},{"type":"VEC3","componentType":5126,"count":384,"bufferView":3,"byteOffset":12},{"type":"VEC2","componentType":5126,"count":384,"bufferView":3,"byteOffset":24},{"type":"VEC3","componentType":5126,"count":613,"max":[0.9893518686294556,0.4692855477333069,0.9872221946716309],"min":[-0.9893518686294556,-0.14088988304138184,-1],"bufferView":4,"byteOffset":0},{"type":"VEC3","componentType":5126,"count":613,"bufferView":4,"byteOffset":12},{"type":"VEC2","componentType":5126,"count":613,"bufferView":4,"byteOffset":24},{"type":"VEC3","componentType":5126,"count":172,"max":[0.758781909942627,0.08849991858005524,0.8100802898406982],"min":[-0.806434690952301,-0.08758869767189026,-0.6812702417373657],"bufferView":5,"byteOffset":0},{"type":"VEC3","componentType":5126,"count":172,"bufferView":5,"byteOffset":12},{"type":"VEC2","componentType":5126,"count":172,"bufferView":5,"byteOffset":24},{"type":"VEC3","componentType":5126,"count":157,"max":[1,8.940696716308594e-8,1],"min":[-1,-0.0818641409277916,-1],"bufferView":6,"byteOffset":0},{"type":"VEC3","componentType":5126,"count":157,"bufferView":6,"byteOffset":12},{"type":"VEC2","componentType":5126,"count":157,"bufferView":6,"byteOffset":24},{"type":"VEC3","componentType":5126,"count":93,"max":[4.40250301361084,8.455410957336426,1.155906319618225],"min":[-1.1084388494491577,-2.3661081790924072,-1.7632215023040771],"bufferView":7,"byteOffset":0},{"type":"VEC3","componentType":5126,"count":93,"bufferView":7,"byteOffset":12},{"type":"VEC2","componentType":5126,"count":93,"bufferView":7,"byteOffset":24},{"type":"VEC3","componentType":5126,"count":93,"max":[2.51057505607605,6.445923805236816,1.155906319618225],"min":[-1.1084388494491577,-2.3661081790924072,-6.084490776062012],"bufferView":8,"byteOffset":0},{"type":"VEC3","componentType":5126,"count":93,"bufferView":8,"byteOffset":12},{"type":"VEC2","componentType":5126,"count":93,"bufferView":8,"byteOffset":24},{"type":"VEC3","componentType":5126,"count":93,"max":[1.2316347360610962,7.562189102172852,1.155906319618225],"min":[-1.9649780988693237,-2.3661081790924072,-1.7632215023040771],"bufferView":9,"byteOffset":0},{"type":"VEC3","componentType":5126,"count":93,"bufferView":9,"byteOffset":12},{"type":"VEC2","componentType":5126,"count":93,"bufferView":9,"byteOffset":24},{"type":"VEC3","componentType":5126,"count":288,"max":[1.094545602798462,0.3606126308441162,0.7311400175094604],"min":[-0.49635353684425354,-0.5095222592353821,-0.4940497577190399],"bufferView":10,"byteOffset":0},{"type":"VEC3","componentType":5126,"count":288,"bufferView":10,"byteOffset":12},{"type":"VEC2","componentType":5126,"count":288,"bufferView":10,"byteOffset":24},{"type":"VEC3","componentType":5126,"count":168,"max":[0.347507119178772,0.13474439084529877,0.4153159260749817],"min":[-0.36104047298431396,-0.30533742904663086,-0.22407883405685425],"bufferView":11,"byteOffset":0},{"type":"VEC3","componentType":5126,"count":168,"bufferView":11,"byteOffset":12},{"type":"VEC2","componentType":5126,"count":168,"bufferView":11,"byteOffset":24},{"type":"VEC3","componentType":5126,"count":160,"max":[2.406498908996582,0.5330023765563965,-0.9248843193054199],"min":[0.8537317514419556,-0.4123128056526184,-2.4968268871307373],"bufferView":12,"byteOffset":0},{"type":"VEC3","componentType":5126,"count":160,"bufferView":12,"byteOffset":12},{"type":"VEC2","componentType":5126,"count":160,"bufferView":12,"byteOffset":24},{"type":"VEC3","componentType":5126,"count":594,"max":[1.162043571472168,0.4204452335834503,0.7311400175094604],"min":[-0.5318116545677185,-0.5095222592353821,-0.5088384747505188],"bufferView":13,"byteOffset":0},{"type":"VEC3","componentType":5126,"count":594,"bufferView":13,"byteOffset":12},{"type":"VEC2","componentType":5126,"count":594,"bufferView":13,"byteOffset":24},{"type":"VEC3","componentType":5126,"count":384,"max":[0.347507119178772,0.18253539502620697,0.4153159260749817],"min":[-0.36104047298431396,-0.315997838973999,-0.24156706035137177],"bufferView":14,"byteOffset":0},{"type":"VEC3","componentType":5126,"count":384,"bufferView":14,"byteOffset":12},{"type":"VEC2","componentType":5126,"count":384,"bufferView":14,"byteOffset":24},{"type":"VEC3","componentType":5126,"count":384,"max":[2.406498908996582,0.5842728614807129,-0.9248843193054199],"min":[0.8537317514419556,-0.4123128056526184,-2.508845329284668],"bufferView":15,"byteOffset":0},{"type":"VEC3","componentType":5126,"count":384,"bufferView":15,"byteOffset":12},{"type":"VEC2","componentType":5126,"count":384,"bufferView":15,"byteOffset":24},{"type":"VEC3","componentType":5126,"count":384,"max":[2.406498908996582,0.5842728614807129,-0.9248843193054199],"min":[0.8537317514419556,-0.4123128056526184,-2.508845329284668],"bufferView":16,"byteOffset":0},{"type":"VEC3","componentType":5126,"count":384,"bufferView":16,"byteOffset":12},{"type":"VEC2","componentType":5126,"count":384,"bufferView":16,"byteOffset":24},{"type":"VEC3","componentType":5126,"count":384,"max":[2.406498908996582,0.5842728614807129,-0.9248843193054199],"min":[0.8537317514419556,-0.4123128056526184,-2.508845329284668],"bufferView":17,"byteOffset":0},{"type":"VEC3","componentType":5126,"count":384,"bufferView":17,"byteOffset":12},{"type":"VEC2","componentType":5126,"count":384,"bufferView":17,"byteOffset":24},{"type":"VEC3","componentType":5126,"count":384,"max":[2.406498908996582,0.5842728614807129,-0.9248843193054199],"min":[0.8537317514419556,-0.4123128056526184,-2.508845329284668],"bufferView":18,"byteOffset":0},{"type":"VEC3","componentType":5126,"count":384,"bufferView":18,"byteOffset":12},{"type":"VEC2","componentType":5126,"count":384,"bufferView":18,"byteOffset":24},{"type":"VEC3","componentType":5126,"count":384,"max":[2.406498908996582,0.5842728614807129,-0.9248843193054199],"min":[0.8537317514419556,-0.4123128056526184,-2.508845329284668],"bufferView":19,"byteOffset":0},{"type":"VEC3","componentType":5126,"count":384,"bufferView":19,"byteOffset":12},{"type":"VEC2","componentType":5126,"count":384,"bufferView":19,"byteOffset":24},{"type":"VEC3","componentType":5126,"count":384,"max":[2.406498908996582,0.5842728614807129,-0.9248843193054199],"min":[0.8537317514419556,-0.4123128056526184,-2.508845329284668],"bufferView":20,"byteOffset":0},{"type":"VEC3","componentType":5126,"count":384,"bufferView":20,"byteOffset":12},{"type":"VEC2","componentType":5126,"count":384,"bufferView":20,"byteOffset":24},{"type":"VEC3","componentType":5126,"count":384,"max":[2.406498908996582,0.5842728614807129,-0.9248843193054199],"min":[0.8537317514419556,-0.4123128056526184,-2.508845329284668],"bufferView":21,"byteOffset":0},{"type":"VEC3","componentType":5126,"count":384,"bufferView":21,"byteOffset":12},{"type":"VEC2","componentType":5126,"count":384,"bufferView":21,"byteOffset":24},{"type":"VEC3","componentType":5126,"count":384,"max":[2.406498908996582,0.5842728614807129,-0.9248843193054199],"min":[0.8537317514419556,-0.4123128056526184,-2.508845329284668],"bufferView":22,"byteOffset":0},{"type":"VEC3","componentType":5126,"count":384,"bufferView":22,"byteOffset":12},{"type":"VEC2","componentType":5126,"count":384,"bufferView":22,"byteOffset":24},{"type":"VEC3","componentType":5126,"count":384,"max":[2.406498908996582,0.5842728614807129,-0.9248843193054199],"min":[0.8537317514419556,-0.4123128056526184,-2.508845329284668],"bufferView":23,"byteOffset":0},{"type":"VEC3","componentType":5126,"count":384,"bufferView":23,"byteOffset":12},{"type":"VEC2","componentType":5126,"count":384,"bufferView":23,"byteOffset":24},{"type":"SCALAR","componentType":5125,"count":594,"bufferView":24,"byteOffset":0},{"type":"SCALAR","componentType":5125,"count":576,"bufferView":24,"byteOffset":2376},{"type":"SCALAR","componentType":5125,"count":576,"bufferView":24,"byteOffset":4680},{"type":"SCALAR","componentType":5125,"count":576,"bufferView":24,"byteOffset":6984},{"type":"SCALAR","componentType":5125,"count":936,"bufferView":24,"byteOffset":9288},{"type":"SCALAR","componentType":5125,"count":258,"bufferView":24,"byteOffset":13032},{"type":"SCALAR","componentType":5125,"count":432,"bufferView":24,"byteOffset":14064},{"type":"SCALAR","componentType":5125,"count":246,"bufferView":24,"byteOffset":15792},{"type":"SCALAR","componentType":5125,"count":246,"bufferView":24,"byteOffset":16776},{"type":"SCALAR","componentType":5125,"count":243,"bufferView":24,"byteOffset":17760},{"type":"SCALAR","componentType":5125,"count":288,"bufferView":24,"byteOffset":18732},{"type":"SCALAR","componentType":5125,"count":252,"bufferView":24,"byteOffset":19884},{"type":"SCALAR","componentType":5125,"count":240,"bufferView":24,"byteOffset":20892},{"type":"SCALAR","componentType":5125,"count":594,"bufferView":24,"byteOffset":21852},{"type":"SCALAR","componentType":5125,"count":576,"bufferView":24,"byteOffset":24228},{"type":"SCALAR","componentType":5125,"count":576,"bufferView":24,"byteOffset":26532},{"type":"SCALAR","componentType":5125,"count":576,"bufferView":24,"byteOffset":28836},{"type":"SCALAR","componentType":5125,"count":576,"bufferView":24,"byteOffset":31140},{"type":"SCALAR","componentType":5125,"count":576,"bufferView":24,"byteOffset":33444},{"type":"SCALAR","componentType":5125,"count":576,"bufferView":24,"byteOffset":35748},{"type":"SCALAR","componentType":5125,"count":576,"bufferView":24,"byteOffset":38052},{"type":"SCALAR","componentType":5125,"count":576,"bufferView":24,"byteOffset":40356},{"type":"SCALAR","componentType":5125,"count":576,"bufferView":24,"byteOffset":42660},{"type":"SCALAR","componentType":5125,"count":576,"bufferView":24,"byteOffset":44964}],"bufferViews":[{"buffer":0,"byteOffset":0,"byteLength":19008,"byteStride":32,"target":34962},{"buffer":0,"byteOffset":19008,"byteLength":12288,"byteStride":32,"target":34962},{"buffer":0,"byteOffset":31296,"byteLength":12288,"byteStride":32,"target":34962},{"buffer":0,"byteOffset":43584,"byteLength":12288,"byteStride":32,"target":34962},{"buffer":0,"byteOffset":55872,"byteLength":19616,"byteStride":32,"target":34962},{"buffer":0,"byteOffset":75488,"byteLength":5504,"byteStride":32,"target":34962},{"buffer":0,"byteOffset":80992,"byteLength":5024,"byteStride":32,"target":34962},{"buffer":0,"byteOffset":86016,"byteLength":2976,"byteStride":32,"target":34962},{"buffer":0,"byteOffset":88992,"byteLength":2976,"byteStride":32,"target":34962},{"buffer":0,"byteOffset":91968,"byteLength":2976,"byteStride":32,"target":34962},{"buffer":0,"byteOffset":94944,"byteLength":9216,"byteStride":32,"target":34962},{"buffer":0,"byteOffset":104160,"byteLength":5376,"byteStride":32,"target":34962},{"buffer":0,"byteOffset":109536,"byteLength":5120,"byteStride":32,"target":34962},{"buffer":0,"byteOffset":114656,"byteLength":19008,"byteStride":32,"target":34962},{"buffer":0,"byteOffset":133664,"byteLength":12288,"byteStride":32,"target":34962},{"buffer":0,"byteOffset":145952,"byteLength":12288,"byteStride":32,"target":34962},{"buffer":0,"byteOffset":158240,"byteLength":12288,"byteStride":32,"target":34962},{"buffer":0,"byteOffset":170528,"byteLength":12288,"byteStride":32,"target":34962},{"buffer":0,"byteOffset":182816,"byteLength":12288,"byteStride":32,"target":34962},{"buffer":0,"byteOffset":195104,"byteLength":12288,"byteStride":32,"target":34962},{"buffer":0,"byteOffset":207392,"byteLength":12288,"byteStride":32,"target":34962},{"buffer":0,"byteOffset":219680,"byteLength":12288,"byteStride":32,"target":34962},{"buffer":0,"byteOffset":231968,"byteLength":12288,"byteStride":32,"target":34962},{"buffer":0,"byteOffset":244256,"byteLength":12288,"byteStride":32,"target":34962},{"buffer":0,"byteOffset":256544,"byteLength":47268,"target":34963}],"buffers":[{"uri":"scene.bin","byteLength":303812}],"materials":[{"name":"lambert1","doubleSided":true,"pbrMetallicRoughness":{"baseColorFactor":[0.5,0.5,0.5,1],"roughnessFactor":0.6,"metallicFactor":0},"extensions":{"KHR_materials_ior":{"ior":1000},"KHR_materials_specular":{"specularColorFactor":[0,0,0]}}},{"name":"grass","doubleSided":true,"pbrMetallicRoughness":{"baseColorFactor":[0.475668,0.657,0.482643,1],"roughnessFactor":0.8942628736559436,"metallicFactor":0},"extensions":{"KHR_materials_ior":{"ior":1000},"KHR_materials_specular":{"specularColorFactor":[0,0,0]}}},{"name":"phong7","doubleSided":true,"pbrMetallicRoughness":{"baseColorFactor":[0.625542,0.643,0.416021,1],"roughnessFactor":0.8942628736559436,"metallicFactor":0},"extensions":{"KHR_materials_ior":{"ior":1000},"KHR_materials_specular":{"specularColorFactor":[0,0,0]}}},{"name":"tropical_water","doubleSided":true,"pbrMetallicRoughness":{"baseColorFactor":[0.545,0.877499,1,1],"roughnessFactor":0.4936355787412825,"metallicFactor":0},"extensions":{"KHR_materials_ior":{"ior":1000},"KHR_materials_specular":{"specularColorFactor":[0.29963853370543997,0.29963853370543997,0.29963853370543997]}}},{"name":"bark","doubleSided":true,"pbrMetallicRoughness":{"baseColorFactor":[0.297,0.211259,0.173151,1],"roughnessFactor":0.8942628736559436,"metallicFactor":0},"extensions":{"KHR_materials_ior":{"ior":1000},"KHR_materials_specular":{"specularColorFactor":[0,0,0]}}},{"name":"cherryblossom1","doubleSided":true,"pbrMetallicRoughness":{"baseColorFactor":[0.75,0.45675,0.524422,1],"roughnessFactor":0.8942628736559436,"metallicFactor":0},"extensions":{"KHR_materials_ior":{"ior":1000},"KHR_materials_specular":{"specularColorFactor":[0,0,0]}}},{"name":"rock","doubleSided":true,"pbrMetallicRoughness":{"baseColorFactor":[0.639489,0.643,0.597347,1],"roughnessFactor":0.8942628736559436,"metallicFactor":0},"extensions":{"KHR_materials_ior":{"ior":1000},"KHR_materials_specular":{"specularColorFactor":[0,0,0]}}}],"meshes":[{"name":"pCube1_lambert1_0","primitives":[{"attributes":{"NORMAL":1,"POSITION":0,"TEXCOORD_0":2},"mode":4,"material":0,"indices":72}]},{"name":"pCube2_lambert1_0","primitives":[{"attributes":{"NORMAL":4,"POSITION":3,"TEXCOORD_0":5},"mode":4,"material":0,"indices":73}]},{"name":"pCube3_lambert1_0","primitives":[{"attributes":{"NORMAL":7,"POSITION":6,"TEXCOORD_0":8},"mode":4,"material":0,"indices":74}]},{"name":"pCube4_lambert1_0","primitives":[{"attributes":{"NORMAL":10,"POSITION":9,"TEXCOORD_0":11},"mode":4,"material":0,"indices":75}]},{"name":"pDisc1_grass_0","primitives":[{"attributes":{"NORMAL":13,"POSITION":12,"TEXCOORD_0":14},"mode":4,"material":1,"indices":76}]},{"name":"pDisc1_phong7_0","primitives":[{"attributes":{"NORMAL":16,"POSITION":15,"TEXCOORD_0":17},"mode":4,"material":2,"indices":77}]},{"name":"pDisc2_tropical_water_0","primitives":[{"attributes":{"NORMAL":19,"POSITION":18,"TEXCOORD_0":20},"mode":4,"material":3,"indices":78}]},{"name":"pCylinder1_bark_0","primitives":[{"attributes":{"NORMAL":22,"POSITION":21,"TEXCOORD_0":23},"mode":4,"material":4,"indices":79}]},{"name":"pCylinder2_bark_0","primitives":[{"attributes":{"NORMAL":25,"POSITION":24,"TEXCOORD_0":26},"mode":4,"material":4,"indices":80}]},{"name":"pCylinder3_bark_0","primitives":[{"attributes":{"NORMAL":28,"POSITION":27,"TEXCOORD_0":29},"mode":4,"material":4,"indices":81}]},{"name":"pCube5_cherryblossom1_0","primitives":[{"attributes":{"NORMAL":31,"POSITION":30,"TEXCOORD_0":32},"mode":4,"material":5,"indices":82}]},{"name":"pCube6_cherryblossom1_0","primitives":[{"attributes":{"NORMAL":34,"POSITION":33,"TEXCOORD_0":35},"mode":4,"material":5,"indices":83}]},{"name":"pCube7_cherryblossom1_0","primitives":[{"attributes":{"NORMAL":37,"POSITION":36,"TEXCOORD_0":38},"mode":4,"material":5,"indices":84}]},{"name":"pCube8_rock_0","primitives":[{"attributes":{"NORMAL":40,"POSITION":39,"TEXCOORD_0":41},"mode":4,"material":6,"indices":85}]},{"name":"pCube9_rock_0","primitives":[{"attributes":{"NORMAL":43,"POSITION":42,"TEXCOORD_0":44},"mode":4,"material":6,"indices":86}]},{"name":"pCube10_rock_0","primitives":[{"attributes":{"NORMAL":46,"POSITION":45,"TEXCOORD_0":47},"mode":4,"material":6,"indices":87}]},{"name":"pCube11_rock_0","primitives":[{"attributes":{"NORMAL":49,"POSITION":48,"TEXCOORD_0":50},"mode":4,"material":6,"indices":88}]},{"name":"pCube12_rock_0","primitives":[{"attributes":{"NORMAL":52,"POSITION":51,"TEXCOORD_0":53},"mode":4,"material":6,"indices":89}]},{"name":"pCube13_rock_0","primitives":[{"attributes":{"NORMAL":55,"POSITION":54,"TEXCOORD_0":56},"mode":4,"material":6,"indices":90}]},{"name":"pCube14_rock_0","primitives":[{"attributes":{"NORMAL":58,"POSITION":57,"TEXCOORD_0":59},"mode":4,"material":6,"indices":91}]},{"name":"pCube15_rock_0","primitives":[{"attributes":{"NORMAL":61,"POSITION":60,"TEXCOORD_0":62},"mode":4,"material":6,"indices":92}]},{"name":"pCube16_rock_0","primitives":[{"attributes":{"NORMAL":64,"POSITION":63,"TEXCOORD_0":65},"mode":4,"material":6,"indices":93}]},{"name":"pCube17_rock_0","primitives":[{"attributes":{"NORMAL":67,"POSITION":66,"TEXCOORD_0":68},"mode":4,"material":6,"indices":94}]},{"name":"pCube18_rock_0","primitives":[{"attributes":{"NORMAL":70,"POSITION":69,"TEXCOORD_0":71},"mode":4,"material":6,"indices":95}]}],"nodes":[{"name":"Sketchfab_model","rotation":[-0.7071067811865475,0,0,0.7071067811865476],"children":[1]},{"name":"d177bbfd10404f129219236933951138.fbx","rotation":[0.7071067811865475,0,0,0.7071067811865476],"scale":[0.009999999776482582,0.009999999776482582,0.009999999776482582],"children":[2]},{"name":"RootNode","children":[3,5,7,9,11,14,16,18,20,22,24,26,28,30,32,34,36,38,40,42,44,46,48]},{"name":"pCube1","translation":[9.529508590698242,1.4595938920974731,-1.1055898666381836],"scale":[1,1.2190864086151123,1],"children":[4]},{"name":"pCube1_lambert1_0","mesh":0},{"name":"pCube2","translation":[6.5234694480896,1.3793253898620605,2.7743611335754395],"children":[6]},{"name":"pCube2_lambert1_0","mesh":1},{"name":"pCube3","translation":[0.49754777550697327,4.088131904602051,-1.0756813287734985],"children":[8]},{"name":"pCube3_lambert1_0","mesh":2},{"name":"pCube4","translation":[8.217497825622559,1.6752930879592896,-0.5711060166358948],"children":[10]},{"name":"pCube4_lambert1_0","mesh":3},{"name":"pDisc1","translation":[0,1.009500503540039,0],"scale":[11.930657386779785,11.930657386779785,11.930657386779785],"children":[12,13]},{"name":"pDisc1_grass_0","mesh":4},{"name":"pDisc1_phong7_0","mesh":5},{"name":"pDisc2","translation":[0,1.1420060396194458,0],"scale":[14.046420097351074,14.046420097351074,14.046420097351074],"children":[15]},{"name":"pDisc2_tropical_water_0","mesh":6},{"name":"pCylinder1","translation":[-1.2497440576553345,4.295892238616943,-3.2906742095947266],"scale":[0.18186913430690765,0.22426064312458038,0.18186913430690765],"children":[17]},{"name":"pCylinder1_bark_0","mesh":7},{"name":"pCylinder2","translation":[-1.2497440576553345,4.295892238616943,-3.2906742095947266],"scale":[0.18186913430690765,0.22426064312458038,0.18186913430690765],"children":[19]},{"name":"pCylinder2_bark_0","mesh":8},{"name":"pCylinder3","translation":[-1.2497440576553345,4.295892238616943,-3.2906742095947266],"scale":[0.18186913430690765,0.22426064312458038,0.18186913430690765],"children":[21]},{"name":"pCylinder3_bark_0","mesh":9},{"name":"pCube5","translation":[-1.3634005784988403,6.395578861236572,-3.3261568546295166],"rotation":[0,0.09833850852465452,0,0.9951530222740351],"scale":[1.0000000000000002,1.2190864086151123,1.0000000000000002],"children":[23]},{"name":"pCube5_cherryblossom1_0","mesh":10},{"name":"pCube6","translation":[-1.018668293952942,6.631667137145996,-3.264906883239746],"rotation":[8.012965182885264e-17,0.9224140220031605,8.012965182885263e-17,-0.38620250130204103],"scale":[1.0000000000000002,0.7161495089530945,0.8191335797309877],"children":[25]},{"name":"pCube6_cherryblossom1_0","mesh":11},{"name":"pCube7","translation":[-2.7035739421844482,5.827262878417969,-5.643798828125],"rotation":[0.020330481983574136,-0.7323004353942362,0.055997769756398794,0.6783708378210527],"children":[27]},{"name":"pCube7_cherryblossom1_0","mesh":12},{"name":"pCube8","translation":[-0.9472216963768005,2.2163808345794678,-8.09150505065918],"rotation":[0,0,0.7209848355720547,0.6929508401576097],"scale":[1.3813905715942383,0.6629055738449098,0.5905393958091736],"children":[29]},{"name":"pCube8_rock_0","mesh":13},{"name":"pCube9","translation":[-1.6469876766204834,3.7726099491119385,-7.590404510498047],"rotation":[0.0212191349827566,0.31682795360282323,0.03488942503469571,0.9476035690874002],"scale":[2.831389904022217,1,1.3429757356643677],"children":[31]},{"name":"pCube9_rock_0","mesh":14},{"name":"pCube10","translation":[-2.8047471046447754,-0.40505295991897583,-5.988702297210693],"rotation":[0.6373147256900408,0.2344609933854439,-0.253448901879678,0.6889278896483465],"scale":[0.6329283118247986,1.0000000000000002,1.5829319953918457],"children":[33]},{"name":"pCube10_rock_0","mesh":15},{"name":"pCube11","translation":[-3.737264633178711,1.3595988750457764,-7.133640289306641],"rotation":[0.6373147256900408,0.2344609933854439,-0.25344890187967795,0.6889278896483465],"scale":[0.21344955265522003,0.33724126219749456,0.5338299870491028],"children":[35]},{"name":"pCube11_rock_0","mesh":16},{"name":"pCube12","translation":[-2.941895008087158,1.2121930122375488,-7.10791015625],"rotation":[0.6373147256900408,0.2344609933854439,-0.25344890187967795,0.6889278896483465],"scale":[0.21344955265522003,0.33724126219749456,0.5338299870491028],"children":[37]},{"name":"pCube12_rock_0","mesh":17},{"name":"pCube13","translation":[-2.941895008087158,1.3595988750457764,-9.44884967803955],"rotation":[0.6373147256900408,0.2344609933854439,-0.25344890187967795,0.6889278896483465],"scale":[0.21344955265522003,0.33724126219749456,0.5338299870491028],"children":[39]},{"name":"pCube13_rock_0","mesh":18},{"name":"pCube14","translation":[-3.6812055110931396,1.3650435209274292,-9.144617080688477],"rotation":[0.5986916684724168,0.32048448184331,-0.3464390337165029,0.6471769301488695],"scale":[0.21344955265522003,0.33724126219749456,0.5338299870491028],"children":[41]},{"name":"pCube14_rock_0","mesh":19},{"name":"pCube15","translation":[-4.017641067504883,1.3709195852279663,-7.700446605682373],"rotation":[0.4649956256973225,0.4948950243061832,-0.5349742771494437,0.5026534649117305],"scale":[0.21344955265522,0.3372412621974945,0.5338299870491028],"children":[43]},{"name":"pCube15_rock_0","mesh":20},{"name":"pCube16","translation":[-1.6551560163497925,1.1529463529586792,-8.02120590209961],"rotation":[0.4649956256973225,0.4948950243061832,-0.5349742771494437,0.5026534649117305],"scale":[0.21344955265522,0.3372412621974945,0.5338299870491028],"children":[45]},{"name":"pCube16_rock_0","mesh":21},{"name":"pCube17","translation":[-4.182628154754639,1.3650435209274292,-8.419537544250488],"rotation":[0.5986916684724168,0.32048448184331,-0.3464390337165029,0.6471769301488695],"scale":[0.21344955265522003,0.33724126219749456,0.5338299870491028],"children":[47]},{"name":"pCube17_rock_0","mesh":22},{"name":"pCube18","translation":[-1.8606019020080566,1.1529463529586792,-8.776357650756836],"rotation":[0.4649956256973225,0.4948950243061832,-0.5349742771494437,0.5026534649117305],"scale":[0.21344955265522,0.3372412621974945,0.5338299870491028],"children":[49]},{"name":"pCube18_rock_0","mesh":23}],"scenes":[{"name":"Sketchfab_Scene","nodes":[0]}],"scene":0,"extensionsUsed":["KHR_materials_ior","KHR_materials_specular"]}