{"asset":{"generator":"glTF-Transform v3.2.0","version":"2.0","extras":{"author":"Raneman (https://sketchfab.com/raneman)","license":"CC-BY-4.0 (http://creativecommons.org/licenses/by/4.0/)","source":"https://sketchfab.com/3d-models/flower-pool-b657aba3fbde4bc6ae75272173f52f93","title":"Flower Pool"}},"accessors":[{"type":"VEC3","componentType":5126,"count":33734,"max":[3.857381582260132,6.2020583152771,1.9592921733856201],"min":[-3.9240734577178955,-3.3325939178466797,-0.4432670772075653],"bufferView":0,"byteOffset":0},{"type":"VEC3","componentType":5126,"count":33734,"bufferView":0,"byteOffset":12},{"type":"VEC4","componentType":5126,"count":33734,"bufferView":0,"byteOffset":24},{"type":"VEC2","componentType":5126,"count":33734,"bufferView":0,"byteOffset":40},{"type":"VEC2","componentType":5126,"count":33734,"bufferView":0,"byteOffset":48},{"type":"VEC2","componentType":5126,"count":33734,"bufferView":0,"byteOffset":56},{"type":"VEC2","componentType":5126,"count":33734,"bufferView":0,"byteOffset":64},{"type":"VEC2","componentType":5126,"count":33734,"bufferView":0,"byteOffset":72},{"type":"VEC2","componentType":5126,"count":33734,"bufferView":0,"byteOffset":80},{"type":"VEC2","componentType":5126,"count":33734,"bufferView":0,"byteOffset":88},{"type":"VEC2","componentType":5126,"count":33734,"bufferView":0,"byteOffset":96},{"type":"VEC2","componentType":5126,"count":33734,"bufferView":0,"byteOffset":104},{"type":"VEC3","componentType":5126,"count":56455,"max":[4.312513828277588,3.2777938842773438,1.8910720348358154],"min":[-4.388172149658203,-1.9671392440795898,0.03203627094626427],"bufferView":1,"byteOffset":0},{"type":"VEC3","componentType":5126,"count":56455,"bufferView":1,"byteOffset":12},{"type":"VEC2","componentType":5126,"count":56455,"bufferView":1,"byteOffset":24},{"type":"VEC2","componentType":5126,"count":56455,"bufferView":1,"byteOffset":32},{"type":"VEC2","componentType":5126,"count":56455,"bufferView":1,"byteOffset":40},{"type":"VEC2","componentType":5126,"count":56455,"bufferView":1,"byteOffset":48},{"type":"VEC2","componentType":5126,"count":56455,"bufferView":1,"byteOffset":56},{"type":"VEC2","componentType":5126,"count":56455,"bufferView":1,"byteOffset":64},{"type":"VEC2","componentType":5126,"count":56455,"bufferView":1,"byteOffset":72},{"type":"VEC2","componentType":5126,"count":56455,"bufferView":1,"byteOffset":80},{"type":"VEC2","componentType":5126,"count":56455,"bufferView":1,"byteOffset":88},{"type":"VEC3","componentType":5126,"count":26,"max":[2.7711238861083984,5.36909294128418,1.439761996269226],"min":[-3.2867701053619385,-2.6917340755462646,0.08429600298404694],"bufferView":2,"byteOffset":0},{"type":"VEC3","componentType":5126,"count":26,"bufferView":2,"byteOffset":12},{"type":"VEC2","componentType":5126,"count":26,"bufferView":2,"byteOffset":24},{"type":"VEC2","componentType":5126,"count":26,"bufferView":2,"byteOffset":32},{"type":"VEC2","componentType":5126,"count":26,"bufferView":2,"byteOffset":40},{"type":"VEC2","componentType":5126,"count":26,"bufferView":2,"byteOffset":48},{"type":"VEC2","componentType":5126,"count":26,"bufferView":2,"byteOffset":56},{"type":"VEC2","componentType":5126,"count":26,"bufferView":2,"byteOffset":64},{"type":"VEC2","componentType":5126,"count":26,"bufferView":2,"byteOffset":72},{"type":"VEC2","componentType":5126,"count":26,"bufferView":2,"byteOffset":80},{"type":"VEC2","componentType":5126,"count":26,"bufferView":2,"byteOffset":88},{"type":"VEC2","componentType":5126,"count":26,"bufferView":2,"byteOffset":96},{"type":"VEC3","componentType":5126,"count":1502,"max":[0.9385737776756287,1.7899997234344482,1.8534018993377686],"min":[0.3073761463165283,1.1506496667861938,1.718488335609436],"bufferView":3,"byteOffset":0},{"type":"VEC3","componentType":5126,"count":1502,"bufferView":3,"byteOffset":12},{"type":"VEC2","componentType":5126,"count":1502,"bufferView":3,"byteOffset":24},{"type":"VEC2","componentType":5126,"count":1502,"bufferView":3,"byteOffset":32},{"type":"VEC2","componentType":5126,"count":1502,"bufferView":3,"byteOffset":40},{"type":"VEC2","componentType":5126,"count":1502,"bufferView":3,"byteOffset":48},{"type":"VEC2","componentType":5126,"count":1502,"bufferView":3,"byteOffset":56},{"type":"VEC2","componentType":5126,"count":1502,"bufferView":3,"byteOffset":64},{"type":"VEC2","componentType":5126,"count":1502,"bufferView":3,"byteOffset":72},{"type":"VEC2","componentType":5126,"count":1502,"bufferView":3,"byteOffset":80},{"type":"VEC2","componentType":5126,"count":1502,"bufferView":3,"byteOffset":88},{"type":"VEC3","componentType":5126,"count":1502,"max":[0.9385737776756287,1.7899997234344482,1.8534018993377686],"min":[0.3073761463165283,1.1506496667861938,1.718488335609436],"bufferView":4,"byteOffset":0},{"type":"VEC3","componentType":5126,"count":1502,"bufferView":4,"byteOffset":12},{"type":"VEC2","componentType":5126,"count":1502,"bufferView":4,"byteOffset":24},{"type":"VEC2","componentType":5126,"count":1502,"bufferView":4,"byteOffset":32},{"type":"VEC2","componentType":5126,"count":1502,"bufferView":4,"byteOffset":40},{"type":"VEC2","componentType":5126,"count":1502,"bufferView":4,"byteOffset":48},{"type":"VEC2","componentType":5126,"count":1502,"bufferView":4,"byteOffset":56},{"type":"VEC2","componentType":5126,"count":1502,"bufferView":4,"byteOffset":64},{"type":"VEC2","componentType":5126,"count":1502,"bufferView":4,"byteOffset":72},{"type":"VEC2","componentType":5126,"count":1502,"bufferView":4,"byteOffset":80},{"type":"VEC2","componentType":5126,"count":1502,"bufferView":4,"byteOffset":88},{"type":"VEC3","componentType":5126,"count":1502,"max":[0.9385737776756287,1.7899997234344482,1.8534018993377686],"min":[0.3073761463165283,1.1506496667861938,1.718488335609436],"bufferView":5,"byteOffset":0},{"type":"VEC3","componentType":5126,"count":1502,"bufferView":5,"byteOffset":12},{"type":"VEC2","componentType":5126,"count":1502,"bufferView":5,"byteOffset":24},{"type":"VEC2","componentType":5126,"count":1502,"bufferView":5,"byteOffset":32},{"type":"VEC2","componentType":5126,"count":1502,"bufferView":5,"byteOffset":40},{"type":"VEC2","componentType":5126,"count":1502,"bufferView":5,"byteOffset":48},{"type":"VEC2","componentType":5126,"count":1502,"bufferView":5,"byteOffset":56},{"type":"VEC2","componentType":5126,"count":1502,"bufferView":5,"byteOffset":64},{"type":"VEC2","componentType":5126,"count":1502,"bufferView":5,"byteOffset":72},{"type":"VEC2","componentType":5126,"count":1502,"bufferView":5,"byteOffset":80},{"type":"VEC2","componentType":5126,"count":1502,"bufferView":5,"byteOffset":88},{"type":"VEC3","componentType":5126,"count":1502,"max":[0.9385737776756287,1.7899997234344482,1.8534018993377686],"min":[0.3073761463165283,1.1506496667861938,1.718488335609436],"bufferView":6,"byteOffset":0},{"type":"VEC3","componentType":5126,"count":1502,"bufferView":6,"byteOffset":12},{"type":"VEC2","componentType":5126,"count":1502,"bufferView":6,"byteOffset":24},{"type":"VEC2","componentType":5126,"count":1502,"bufferView":6,"byteOffset":32},{"type":"VEC2","componentType":5126,"count":1502,"bufferView":6,"byteOffset":40},{"type":"VEC2","componentType":5126,"count":1502,"bufferView":6,"byteOffset":48},{"type":"VEC2","componentType":5126,"count":1502,"bufferView":6,"byteOffset":56},{"type":"VEC2","componentType":5126,"count":1502,"bufferView":6,"byteOffset":64},{"type":"VEC2","componentType":5126,"count":1502,"bufferView":6,"byteOffset":72},{"type":"VEC2","componentType":5126,"count":1502,"bufferView":6,"byteOffset":80},{"type":"VEC2","componentType":5126,"count":1502,"bufferView":6,"byteOffset":88},{"type":"VEC3","componentType":5126,"count":1502,"max":[0.9385737776756287,1.7899997234344482,1.8534018993377686],"min":[0.3073761463165283,1.1506496667861938,1.718488335609436],"bufferView":7,"byteOffset":0},{"type":"VEC3","componentType":5126,"count":1502,"bufferView":7,"byteOffset":12},{"type":"VEC2","componentType":5126,"count":1502,"bufferView":7,"byteOffset":24},{"type":"VEC2","componentType":5126,"count":1502,"bufferView":7,"byteOffset":32},{"type":"VEC2","componentType":5126,"count":1502,"bufferView":7,"byteOffset":40},{"type":"VEC2","componentType":5126,"count":1502,"bufferView":7,"byteOffset":48},{"type":"VEC2","componentType":5126,"count":1502,"bufferView":7,"byteOffset":56},{"type":"VEC2","componentType":5126,"count":1502,"bufferView":7,"byteOffset":64},{"type":"VEC2","componentType":5126,"count":1502,"bufferView":7,"byteOffset":72},{"type":"VEC2","componentType":5126,"count":1502,"bufferView":7,"byteOffset":80},{"type":"VEC2","componentType":5126,"count":1502,"bufferView":7,"byteOffset":88},{"type":"VEC3","componentType":5126,"count":1502,"max":[0.9385737776756287,1.7899997234344482,1.8534018993377686],"min":[0.3073761463165283,1.1506496667861938,1.718488335609436],"bufferView":8,"byteOffset":0},{"type":"VEC3","componentType":5126,"count":1502,"bufferView":8,"byteOffset":12},{"type":"VEC2","componentType":5126,"count":1502,"bufferView":8,"byteOffset":24},{"type":"VEC2","componentType":5126,"count":1502,"bufferView":8,"byteOffset":32},{"type":"VEC2","componentType":5126,"count":1502,"bufferView":8,"byteOffset":40},{"type":"VEC2","componentType":5126,"count":1502,"bufferView":8,"byteOffset":48},{"type":"VEC2","componentType":5126,"count":1502,"bufferView":8,"byteOffset":56},{"type":"VEC2","componentType":5126,"count":1502,"bufferView":8,"byteOffset":64},{"type":"VEC2","componentType":5126,"count":1502,"bufferView":8,"byteOffset":72},{"type":"VEC2","componentType":5126,"count":1502,"bufferView":8,"byteOffset":80},{"type":"VEC2","componentType":5126,"count":1502,"bufferView":8,"byteOffset":88},{"type":"SCALAR","componentType":5125,"count":195138,"bufferView":9,"byteOffset":0},{"type":"SCALAR","componentType":5125,"count":333234,"bufferView":9,"byteOffset":780552},{"type":"SCALAR","componentType":5125,"count":66,"bufferView":9,"byteOffset":2113488},{"type":"SCALAR","componentType":5125,"count":8532,"bufferView":9,"byteOffset":2113752},{"type":"SCALAR","componentType":5125,"count":8532,"bufferView":9,"byteOffset":2147880},{"type":"SCALAR","componentType":5125,"count":8532,"bufferView":9,"byteOffset":2182008},{"type":"SCALAR","componentType":5125,"count":8532,"bufferView":9,"byteOffset":2216136},{"type":"SCALAR","componentType":5125,"count":8532,"bufferView":9,"byteOffset":2250264},{"type":"SCALAR","componentType":5125,"count":8532,"bufferView":9,"byteOffset":2284392}],"bufferViews":[{"buffer":0,"byteOffset":0,"byteLength":3778208,"byteStride":112,"target":34962},{"buffer":0,"byteOffset":3778208,"byteLength":5419680,"byteStride":96,"target":34962},{"buffer":0,"byteOffset":9197888,"byteLength":2704,"byteStride":104,"target":34962},{"buffer":0,"byteOffset":9200592,"byteLength":144192,"byteStride":96,"target":34962},{"buffer":0,"byteOffset":9344784,"byteLength":144192,"byteStride":96,"target":34962},{"buffer":0,"byteOffset":9488976,"byteLength":144192,"byteStride":96,"target":34962},{"buffer":0,"byteOffset":9633168,"byteLength":144192,"byteStride":96,"target":34962},{"buffer":0,"byteOffset":9777360,"byteLength":144192,"byteStride":96,"target":34962},{"buffer":0,"byteOffset":9921552,"byteLength":144192,"byteStride":96,"target":34962},{"buffer":0,"byteOffset":10065744,"byteLength":2318520,"target":34963}],"samplers":[{"magFilter":9729,"minFilter":9987,"wrapS":10497,"wrapT":10497}],"textures":[{"source":0,"sampler":0},{"source":1,"sampler":0},{"source":2,"sampler":0},{"source":7,"sampler":0},{"source":3,"sampler":0},{"source":4,"sampler":0},{"source":9,"sampler":0},{"source":5,"sampler":0},{"source":6,"sampler":0},{"source":8,"sampler":0}],"images":[{"mimeType":"image/png","uri":"textures/StonesMat_diffuse.png"},{"mimeType":"image/png","uri":"textures/StonesMat_normal.png"},{"mimeType":"image/png","uri":"textures/StonesMat_occlusion.png"},{"mimeType":"image/png","uri":"textures/FloraMat_diffuse.png"},{"mimeType":"image/png","uri":"textures/FloraMat_occlusion.png"},{"mimeType":"image/png","uri":"textures/WaterMat_diffuse.png"},{"mimeType":"image/png","uri":"specular_1.png"},{"mimeType":"image/png","uri":"metallicRoughness_1.png"},{"mimeType":"image/png","uri":"specular_2.png"},{"mimeType":"image/png","uri":"metallicRoughness_2.png"}],"buffers":[{"uri":"scene.bin","byteLength":12384264}],"materials":[{"name":"StonesMat","doubleSided":true,"pbrMetallicRoughness":{"metallicFactor":0,"baseColorTexture":{"index":0},"metallicRoughnessTexture":{"index":3}},"normalTexture":{"index":1},"occlusionTexture":{"index":2},"extensions":{"KHR_materials_ior":{"ior":1000},"KHR_materials_specular":{"specularColorFactor":[0,0,0],"specularTexture":{"index":8},"specularColorTexture":{"index":8}}}},{"name":"FloraMat","pbrMetallicRoughness":{"metallicFactor":0,"baseColorTexture":{"index":4},"metallicRoughnessTexture":{"index":6}},"occlusionTexture":{"index":5},"extensions":{"KHR_materials_ior":{"ior":1000},"KHR_materials_specular":{"specularColorFactor":[0,0,0],"specularTexture":{"index":9},"specularColorTexture":{"index":9}}}},{"name":"WaterMat","doubleSided":true,"pbrMetallicRoughness":{"roughnessFactor":0.21451610941879629,"metallicFactor":0,"baseColorTexture":{"index":7}},"extensions":{"KHR_materials_ior":{"ior":1000},"KHR_materials_specular":{"specularColorFactor":[0,0,0]}}},{"name":"FloraMat_0","doubleSided":true,"pbrMetallicRoughness":{"roughnessFactor":0.9577051494623774,"metallicFactor":0,"baseColorTexture":{"index":4}},"extensions":{"KHR_materials_ior":{"ior":1000},"KHR_materials_specular":{"specularColorFactor":[0,0,0]}}},{"name":"FloraMat_1","doubleSided":true,"pbrMetallicRoughness":{"roughnessFactor":0.9577051494623774,"metallicFactor":0,"baseColorTexture":{"index":4}},"extensions":{"KHR_materials_ior":{"ior":1000},"KHR_materials_specular":{"specularColorFactor":[0,0,0]}}},{"name":"FloraMat_2","doubleSided":true,"pbrMetallicRoughness":{"roughnessFactor":0.9577051494623774,"metallicFactor":0,"baseColorTexture":{"index":4}},"extensions":{"KHR_materials_ior":{"ior":1000},"KHR_materials_specular":{"specularColorFactor":[0,0,0]}}},{"name":"material_0","doubleSided":true,"pbrMetallicRoughness":{"roughnessFactor":0.9577051494623774,"metallicFactor":0,"baseColorTexture":{"index":4}},"extensions":{"KHR_materials_ior":{"ior":1000},"KHR_materials_specular":{"specularColorFactor":[0,0,0]}}},{"name":"FloraMat_3","doubleSided":true,"pbrMetallicRoughness":{"roughnessFactor":0.9577051494623774,"metallicFactor":0,"baseColorTexture":{"index":4}},"extensions":{"KHR_materials_ior":{"ior":1000},"KHR_materials_specular":{"specularColorFactor":[0,0,0]}}},{"name":"FloraMat_4","doubleSided":true,"pbrMetallicRoughness":{"roughnessFactor":0.9577051494623774,"metallicFactor":0,"baseColorTexture":{"index":4}},"extensions":{"KHR_materials_ior":{"ior":1000},"KHR_materials_specular":{"specularColorFactor":[0,0,0]}}}],"meshes":[{"name":"Rocks_StonesMat_0","primitives":[{"attributes":{"NORMAL":1,"POSITION":0,"TANGENT":2,"TEXCOORD_0":3,"TEXCOORD_1":4,"TEXCOORD_2":5,"TEXCOORD_3":6,"TEXCOORD_4":7,"TEXCOORD_5":8,"TEXCOORD_6":9,"TEXCOORD_7":10,"TEXCOORD_8":11},"mode":4,"material":0,"indices":101}]},{"name":"Flora_FloraMat_0","primitives":[{"attributes":{"NORMAL":13,"POSITION":12,"TEXCOORD_0":14,"TEXCOORD_1":15,"TEXCOORD_2":16,"TEXCOORD_3":17,"TEXCOORD_4":18,"TEXCOORD_5":19,"TEXCOORD_6":20,"TEXCOORD_7":21,"TEXCOORD_8":22},"mode":4,"material":1,"indices":102}]},{"name":"Water_WaterMat_0","primitives":[{"attributes":{"NORMAL":24,"POSITION":23,"TEXCOORD_0":25,"TEXCOORD_1":26,"TEXCOORD_2":27,"TEXCOORD_3":28,"TEXCOORD_4":29,"TEXCOORD_5":30,"TEXCOORD_6":31,"TEXCOORD_7":32,"TEXCOORD_8":33,"TEXCOORD_9":34},"mode":4,"material":2,"indices":103}]},{"name":"Flower_FloraMat_0","primitives":[{"attributes":{"NORMAL":36,"POSITION":35,"TEXCOORD_0":37,"TEXCOORD_1":38,"TEXCOORD_2":39,"TEXCOORD_3":40,"TEXCOORD_4":41,"TEXCOORD_5":42,"TEXCOORD_6":43,"TEXCOORD_7":44,"TEXCOORD_8":45},"mode":4,"material":3,"indices":104}]},{"name":"Flower Copy_FloraMat_0","primitives":[{"attributes":{"NORMAL":47,"POSITION":46,"TEXCOORD_0":48,"TEXCOORD_1":49,"TEXCOORD_2":50,"TEXCOORD_3":51,"TEXCOORD_4":52,"TEXCOORD_5":53,"TEXCOORD_6":54,"TEXCOORD_7":55,"TEXCOORD_8":56},"mode":4,"material":4,"indices":105}]},{"name":"Flower Copy_FloraMat_0","primitives":[{"attributes":{"NORMAL":58,"POSITION":57,"TEXCOORD_0":59,"TEXCOORD_1":60,"TEXCOORD_2":61,"TEXCOORD_3":62,"TEXCOORD_4":63,"TEXCOORD_5":64,"TEXCOORD_6":65,"TEXCOORD_7":66,"TEXCOORD_8":67},"mode":4,"material":5,"indices":106}]},{"name":"Flower Copy_FloraMat_0","primitives":[{"attributes":{"NORMAL":69,"POSITION":68,"TEXCOORD_0":70,"TEXCOORD_1":71,"TEXCOORD_2":72,"TEXCOORD_3":73,"TEXCOORD_4":74,"TEXCOORD_5":75,"TEXCOORD_6":76,"TEXCOORD_7":77,"TEXCOORD_8":78},"mode":4,"material":6,"indices":107}]},{"name":"Flower Copy Copy_FloraMat_0","primitives":[{"attributes":{"NORMAL":80,"POSITION":79,"TEXCOORD_0":81,"TEXCOORD_1":82,"TEXCOORD_2":83,"TEXCOORD_3":84,"TEXCOORD_4":85,"TEXCOORD_5":86,"TEXCOORD_6":87,"TEXCOORD_7":88,"TEXCOORD_8":89},"mode":4,"material":7,"indices":108}]},{"name":"Flower Copy Copy_FloraMat_0","primitives":[{"attributes":{"NORMAL":91,"POSITION":90,"TEXCOORD_0":92,"TEXCOORD_1":93,"TEXCOORD_2":94,"TEXCOORD_3":95,"TEXCOORD_4":96,"TEXCOORD_5":97,"TEXCOORD_6":98,"TEXCOORD_7":99,"TEXCOORD_8":100},"mode":4,"material":8,"indices":109}]}],"nodes":[{"name":"Sketchfab_model","rotation":[-0.7071067811865475,0,0,0.7071067811865476],"children":[1]},{"name":"236be5c824774a2b98d9bd66d4b81f47.fbx","rotation":[0.7071067811865475,0,0,0.7071067811865476],"children":[2]},{"name":"RootNode","children":[3,7]},{"name":"Sky","rotation":[0,-0.47331966718484364,0,0.8808907382053854],"children":[4]},{"name":"Sky Light 1","rotation":[-0.28129171400951575,0.3304586708473924,0.10386985579824465,0.8949207180235663],"children":[5]},{"name":"Object_5","rotation":[0.7071067811865475,0,0,0.7071067811865476],"children":[6]},{"name":"Object_6"},{"name":"FlowerPool","children":[8,10,12,14,16,18,20,22,24]},{"name":"Rocks","rotation":[-0.7071067811865476,0,0,0.7071067811865475],"children":[9]},{"name":"Rocks_StonesMat_0","mesh":0},{"name":"Flora","rotation":[-0.7071067811865476,0,0,0.7071067811865475],"children":[11]},{"name":"Flora_FloraMat_0","mesh":1},{"name":"Water","rotation":[-0.7071067811865476,0,0,0.7071067811865475],"children":[13]},{"name":"Water_WaterMat_0","mesh":2},{"name":"Flower","translation":[1.8034133911132812,-0.30075886845588684,0.21910595893859863],"rotation":[-0.7071067811865475,0,0,0.7071067811865475],"scale":[1.2130318880081177,1.2130318880081177,1.2130318880081177],"children":[15]},{"name":"Flower_FloraMat_0","mesh":3},{"name":"Flower Copy","translation":[1.6090741157531738,0.6466001272201538,-0.10924288630485535],"rotation":[-0.7708818351613332,0.11236546818870924,-0.23200507874156132,0.5824850566453609],"scale":[1.213032007217407,1.213032245635986,1.2130318880081172],"children":[17]},{"name":"Flower Copy_FloraMat_0","mesh":4},{"name":"Flower Copy","translation":[3.820535659790039,-1.6928611993789673,-0.3814401924610138],"rotation":[-0.3861731451376312,0.26296740432166665,0.2991514293924897,0.8320017238751765],"scale":[1.2130323648452757,1.2130324840545654,1.2130320072174072],"children":[19]},{"name":"Flower Copy_FloraMat_0","mesh":5},{"name":"Flower Copy","translation":[-3.9504034519195557,0.3319927752017975,-0.31593048572540283],"rotation":[-0.726353421401756,0.2060193687999764,-0.1771843372745759,0.6313259360439675],"scale":[1.2130328416824339,1.2130316495895386,1.2130311727523804],"children":[21]},{"name":"Flower Copy_FloraMat_0","mesh":6},{"name":"Flower Copy Copy","translation":[-3.318956136703491,-0.8792068362236023,-0.09375536441802979],"rotation":[-0.6980308182905676,-0.11292907825976664,0.11292907825976646,0.6980308182905677],"scale":[1.2130312919616701,1.2130318880081177,1.2130312919616701],"children":[23]},{"name":"Flower Copy Copy_FloraMat_0","mesh":7},{"name":"Flower Copy Copy","translation":[-4.9139533042907715,-1.0734349489212036,-0.08569861948490143],"rotation":[-0.5217065582175431,0.12951764502276938,-0.16125728063837447,0.8276735686136641],"scale":[1.2130309343338013,1.2130317687988281,1.2130311727523804],"children":[25]},{"name":"Flower Copy Copy_FloraMat_0","mesh":8}],"scenes":[{"name":"Sketchfab_Scene","nodes":[0]}],"scene":0,"extensionsUsed":["KHR_materials_ior","KHR_materials_specular"]}